<?xml version="1.0" encoding="UTF-8"?>
<svg version="1.1" xmlns="http://www.w3.org/2000/svg" width="32" height="24">
<path d="M0 0 C0 3.63 0 7.26 0 11 C-1.65 11 -3.3 11 -5 11 C-5.66 8.03 -6.32 5.06 -7 2 C-1.125 0 -1.125 0 0 0 Z M-4 2 C-4 2.66 -4 3.32 -4 4 C-3.01 3.67 -2.02 3.34 -1 3 C-1.99 2.67 -2.98 2.34 -4 2 Z M-4 5 C-4 5.66 -4 6.32 -4 7 C-3.01 7 -2.02 7 -1 7 C-1.33 6.34 -1.66 5.68 -2 5 C-2.66 5 -3.32 5 -4 5 Z " fill="#C1C3A8" transform="translate(12,6)"/>
<path d="M0 0 C3.96 0 7.92 0 12 0 C12 1.65 12 3.3 12 5 C8 5 4 5 0 5 C0 3.35 0 1.7 0 0 Z M1 1 C2 3 2 3 2 3 Z M8 2 C7.01 2.66 6.02 3.32 5 4 C6.98 4 8.96 4 11 4 C10.01 3.34 9.02 2.68 8 2 Z " fill="#38B449" transform="translate(13,8)"/>
<path d="M0 0 C0.66 0 1.32 0 2 0 C2.66 1.65 3.32 3.3 4 5 C2.35 5 0.7 5 -1 5 C-0.67 3.35 -0.34 1.7 0 0 Z " fill="#39B54A" transform="translate(27,8)"/>
<path d="M0 0 C0.66 0 1.32 0 2 0 C2 0.66 2 1.32 2 2 C2.66 2 3.32 2 4 2 C4 2.99 4 3.98 4 5 C2.68 5 1.36 5 0 5 C0 3.35 0 1.7 0 0 Z " fill="#36B14D" transform="translate(1,8)"/>
</svg>
