<?xml version="1.0" encoding="UTF-8"?>
<svg version="1.1" xmlns="http://www.w3.org/2000/svg" width="48" height="48">
<path d="M0 0 C5.82485779 3.51996782 10.54466582 8.98962934 12.5625 15.5 C13.36764105 23.33608208 13.68710392 31.11922577 8.5625 37.5 C3.75801361 42.54521222 -0.59927055 46.10562995 -7.70703125 46.8359375 C-16.22326573 46.92983204 -22.11345494 46.6177288 -28.40234375 40.62890625 C-34.7841668 33.72505269 -35.91792252 28.29832071 -35.7421875 18.9453125 C-35.04689797 11.08319245 -31.38995981 6.95041296 -25.53515625 1.9453125 C-18.47077988 -2.92213491 -7.84396301 -3.47595223 0 0 Z M-26.23828125 13.78125 C-28.94651565 17.66275858 -28.89693147 21.94902794 -28.4375 26.5 C-26.58830845 31.93879866 -23.06163162 35.27361725 -18.4375 38.5 C-13.50308151 40.14480616 -9.17339501 40.0902043 -4.3125 38.4375 C0.20596921 35.39244466 3.82276194 31.71921417 5.5625 26.5 C5.93073488 20.88441811 5.80141406 17.30613054 2.5625 12.5 C-1.77524105 8.12124012 -4.90768385 5.66588958 -11.25 5.25 C-18.19934973 5.38974926 -21.96008192 8.66088545 -26.23828125 13.78125 Z " fill="#CF283C" transform="translate(35.4375,1.5)"/>
<path d="M0 0 C5.9590347 -0.49658622 10.07395772 0.53245259 15 4 C20.06506038 8.75718416 23.60891743 13.19376612 24.3359375 20.26953125 C24.42983204 28.78576573 24.1177288 34.67595494 18.12890625 40.96484375 C12.23927269 46.40913639 8.13897755 48.31917559 0 48 C0 45.69 0 43.38 0 41 C0.87011719 40.79697266 0.87011719 40.79697266 1.7578125 40.58984375 C7.95749468 38.88135048 11.52637382 36.45855543 15 31 C16.66026461 26.01920617 16.59903425 21.69726371 14.875 16.8125 C10.96185696 10.94278544 6.67252018 8.46795444 0 7 C0 4.69 0 2.38 0 0 Z " fill="#EA2D45" transform="translate(24,0)"/>
<path d="M0 0 C0.94875 0.04125 1.8975 0.0825 2.875 0.125 C3.535 1.445 4.195 2.765 4.875 4.125 C5.535 4.125 6.195 4.125 6.875 4.125 C7.535 2.805 8.195 1.485 8.875 0.125 C11.75 0 11.75 0 14.875 0.125 C16.875 2.125 16.875 2.125 17 5.25 C16.95875 6.19875 16.9175 7.1475 16.875 8.125 C14.895 9.115 14.895 9.115 12.875 10.125 C12.875 10.785 12.875 11.445 12.875 12.125 C14.195 12.785 15.515 13.445 16.875 14.125 C17 17 17 17 16.875 20.125 C14.875 22.125 14.875 22.125 11.75 22.25 C10.326875 22.188125 10.326875 22.188125 8.875 22.125 C8.215 20.805 7.555 19.485 6.875 18.125 C6.215 18.125 5.555 18.125 4.875 18.125 C4.215 19.445 3.555 20.765 2.875 22.125 C0 22.25 0 22.25 -3.125 22.125 C-5.125 20.125 -5.125 20.125 -5.375 17.125 C-5.125 14.125 -5.125 14.125 -3.125 12.125 C-2.135 12.125 -1.145 12.125 -0.125 12.125 C-0.125 11.465 -0.125 10.805 -0.125 10.125 C-0.764375 9.980625 -1.40375 9.83625 -2.0625 9.6875 C-4.125 9.125 -4.125 9.125 -5.125 8.125 C-5.3125 5.1875 -5.3125 5.1875 -5.125 2.125 C-3.125 0.125 -3.125 0.125 0 0 Z M2.75 8 C0.65445945 9.90262162 0.65445945 9.90262162 0.875 12.125 C1.865 12.455 2.855 12.785 3.875 13.125 C4.205 14.115 4.535 15.105 4.875 16.125 C5.535 16.125 6.195 16.125 6.875 16.125 C7.205 15.135 7.535 14.145 7.875 13.125 C8.865 12.795 9.855 12.465 10.875 12.125 C10.875 11.465 10.875 10.805 10.875 10.125 C9.555 9.795 8.235 9.465 6.875 9.125 C6.875 8.135 6.875 7.145 6.875 6.125 C4.65262162 5.90445945 4.65262162 5.90445945 2.75 8 Z " fill="#EC2A3F" transform="translate(18.125,12.875)"/>
<path d="M0 0 C0.94875 0.04125 1.8975 0.0825 2.875 0.125 C3.535 1.445 4.195 2.765 4.875 4.125 C5.535 4.125 6.195 4.125 6.875 4.125 C7.535 2.805 8.195 1.485 8.875 0.125 C9.865 0.125 10.855 0.125 11.875 0.125 C11.875 3.425 11.875 6.725 11.875 10.125 C10.225 9.795 8.575 9.465 6.875 9.125 C6.875 8.135 6.875 7.145 6.875 6.125 C6.215 6.125 5.555 6.125 4.875 6.125 C4.215 7.445 3.555 8.765 2.875 10.125 C2.215 10.125 1.555 10.125 0.875 10.125 C0.545 14.085 0.215 18.045 -0.125 22.125 C-4.125 21.125 -4.125 21.125 -5.125 20.125 C-5.3125 17.1875 -5.3125 17.1875 -5.125 14.125 C-4.465 13.465 -3.805 12.805 -3.125 12.125 C-2.135 12.125 -1.145 12.125 -0.125 12.125 C-0.125 11.465 -0.125 10.805 -0.125 10.125 C-0.764375 9.980625 -1.40375 9.83625 -2.0625 9.6875 C-4.125 9.125 -4.125 9.125 -5.125 8.125 C-5.3125 5.1875 -5.3125 5.1875 -5.125 2.125 C-3.125 0.125 -3.125 0.125 0 0 Z " fill="#DE293E" transform="translate(18.125,12.875)"/>
<path d="M0 0 C3.875 0.875 3.875 0.875 5 2 C5.04080783 3.99958364 5.04254356 6.00045254 5 8 C3.02 8.99 3.02 8.99 1 10 C1 10.66 1 11.32 1 12 C2.32 12.66 3.64 13.32 5 14 C5.125 16.875 5.125 16.875 5 20 C4.34 20.66 3.68 21.32 3 22 C2.01 22 1.02 22 0 22 C-0.8388516 14.48905184 -1.0773541 7.49175465 0 0 Z " fill="#EB2B42" transform="translate(30,13)"/>
<path d="M0 0 C1.32 0 2.64 0 4 0 C4 3.3 4 6.6 4 10 C2.68 9.67 1.36 9.34 0 9 C-1.375 6.6875 -1.375 6.6875 -2 4 C-1.125 1.6875 -1.125 1.6875 0 0 Z " fill="#D1263A" transform="translate(26,25)"/>
<path d="M0 0 C0.99 0 1.98 0 3 0 C3 3.3 3 6.6 3 10 C-1 9 -1 9 -2 8 C-2.1875 5.0625 -2.1875 5.0625 -2 2 C-1.34 1.34 -0.68 0.68 0 0 Z " fill="#CF283C" transform="translate(15,25)"/>
<path d="M0 0 C0.99 0 1.98 0 3 0 C3 3.3 3 6.6 3 10 C-1 9 -1 9 -2 8 C-2.1875 5.0625 -2.1875 5.0625 -2 2 C-1.34 1.34 -0.68 0.68 0 0 Z " fill="#CF283C" transform="translate(15,13)"/>
</svg>
